<?xml version="1.0" encoding="UTF-8"?>
<svg version="1.1" xmlns="http://www.w3.org/2000/svg" width="135" height="135">
<path d="M0 0 C5.41887613 1.65307977 10.06534656 4.11185284 15 6.85546875 C18.50868431 8.19406836 20.41767401 7.98409827 24 7 C24.33 6.67 24.66 6.34 25 6 C31.33978694 5.03524981 34.96098996 7.39738254 40.25390625 10.78515625 C43.70461024 12.31171235 45.37712678 11.89056472 49 11 C52.59594197 10.12418424 54.32319867 9.72148485 57.78125 11.14453125 C58.6784375 11.69496094 59.575625 12.24539062 60.5 12.8125 C61.4590625 13.36035156 62.418125 13.90820312 63.40625 14.47265625 C64.2621875 14.97667969 65.118125 15.48070312 66 16 C68.85653413 17.95473775 68.85653413 17.95473775 72 18 C77.18358617 15.87472967 81.8512226 13.72316609 85 9 C85.99 9 86.98 9 88 9 C87.63024154 17.68932379 85.29777664 24.40444673 81.4375 32.125 C77.97770414 34.78638143 75.25147063 34.19139745 71 33.9765625 C67.84640923 34.00119993 65.44052434 34.57008621 62.4375 35.5 C57.84263672 36.91127944 53.97197841 37.1448558 49.1953125 36.97265625 C46.82925772 36.88852041 46.82925772 36.88852041 44.0625 38 C39.16848747 39.59804491 33.12124682 39.90198193 28.12109375 38.45703125 C24.94844148 37.77342109 21.91504642 38.2664489 18.6875 38.5 C14.85014784 38.61696717 11.87021265 38.59809404 8.6015625 36.3515625 C1.89989734 28.01106219 -1.14888559 17.80742949 -1.125 7.25 C-1.12757812 6.10015625 -1.13015625 4.9503125 -1.1328125 3.765625 C-1 1 -1 1 0 0 Z " fill="#026DAB" transform="translate(24,48)"/>
<path d="M0 0 C0.33 0.66 0.66 1.32 1 2 C0.62488281 2.41507813 0.24976562 2.83015625 -0.13671875 3.2578125 C-7.66568252 12.32291245 -12.02799176 25.17809474 -11 37 C-9.60901367 46.11213925 -7.05282708 55.97056564 -0.3125 62.6796875 C1 64 1 64 1 66 C1.57105469 66.26941406 2.14210938 66.53882812 2.73046875 66.81640625 C5.06931052 68.03614645 7.15053544 69.4283489 9.3125 70.9375 C20.01219065 78.14090421 31.34049713 79.26540485 44 78 C56.24850775 75.07046 65.60796592 68.06709566 73 58 C79.34686332 47.00948225 81.58916109 35.38060411 78.75 23 C76.56363512 14.87775665 73.01734806 8.68979742 68 2 C68.33 1.34 68.66 0.68 69 0 C80.24459251 11.29456847 86.54763746 23.86643043 87.375 40 C86.53664356 56.34795056 80.03720579 70.01337874 68 81 C54.85479742 90.81807832 40.97826387 93.20603383 25 92 C12.84231503 89.74505508 0.68241179 82.71891319 -7 73 C-16.5226527 59.11919778 -19.62906095 44.656063 -17 28 C-14.13311114 17.05804083 -8.36167851 7.60152592 0 0 Z " fill="#06548C" transform="translate(33,22)"/>
<path d="M0 0 C25.41 0 50.82 0 77 0 C76.67 1.65 76.34 3.3 76 5 C73.16647836 5.94450721 71.87498498 6.03354697 69 5.875 C65.22862499 5.81387561 62.16821942 6.40549793 58.5625 7.5 C53.92640638 8.89602259 50.00626997 9.14609202 45.1953125 8.97265625 C42.82925772 8.88852041 42.82925772 8.88852041 40.0625 10 C35.16848747 11.59804491 29.12124682 11.90198193 24.12109375 10.45703125 C20.94844148 9.77342109 17.91504642 10.2664489 14.6875 10.5 C10.63338892 10.66368895 7.7941116 10.61452021 4.4609375 8.03515625 C0 2.22492284 0 2.22492284 0 0 Z " fill="#309ACE" transform="translate(28,76)"/>
<path d="M0 0 C0.84691406 0.49306641 0.84691406 0.49306641 1.7109375 0.99609375 C4.25691506 2.11267435 5.86905346 2.17771516 8.625 2.0625 C12.80555556 1.90277778 12.80555556 1.90277778 15 3 C23.3616605 3.35537057 31.70035646 3.09360009 40 2 C40 5 40 5 38 8 C38.66 8.33 39.32 8.66 40 9 C39.34 9 38.68 9 38 9 C38.495 10.485 38.495 10.485 39 12 C38.34 12 37.68 12 37 12 C37 12.66 37 13.32 37 14 C25.74468764 17.13401144 12.50332532 15.78853767 2 11 C1.28199219 10.68804687 0.56398438 10.37609375 -0.17578125 10.0546875 C-3.07639563 8.37767276 -4.34290719 5.84073053 -6 3 C-6 2.34 -6 1.68 -6 1 C-3.03 1.495 -3.03 1.495 0 2 C0 1.34 0 0.68 0 0 Z " fill="#025592" transform="translate(44,99)"/>
<path d="M0 0 C10.89912879 8.22995439 16.11140375 19.55701876 18.75 32.75 C19.55399907 43.20198789 18.20583824 53.28999955 14 63 C13.67 63 13.34 63 13 63 C12.67 61.35 12.34 59.7 12 58 C10.68 58 9.36 58 8 58 C6.62555553 54.29421934 7.41660385 52.2156719 8.875 48.625 C13.36808903 36.9274751 12.70196925 26.31820465 8.0859375 14.69921875 C6.44323571 11.26022923 4.48920978 8.20549481 2.25 5.125 C0 2 0 2 0 0 Z " fill="#0E5385" transform="translate(101,22)"/>
<path d="M0 0 C0.99 0 1.98 0 3 0 C3.66 1.32 4.32 2.64 5 4 C5.33 4 5.66 4 6 4 C6 5.65 6 7.3 6 9 C6.639375 9.268125 7.27875 9.53625 7.9375 9.8125 C10 11 10 11 11 14 C11.66 14.33 12.32 14.66 13 15 C13 15.66 13 16.32 13 17 C14.32 16.67 15.64 16.34 17 16 C17 16.66 17 17.32 17 18 C17.66 18 18.32 18 19 18 C20.32 20.31 21.64 22.62 23 25 C12.68678764 21.45827405 5.98040016 12.29065473 1 3 C0.67 2.01 0.34 1.02 0 0 Z M20 10 C21.53720703 10.74056641 21.53720703 10.74056641 23.10546875 11.49609375 C24.4660065 12.14352206 25.82669139 12.79064121 27.1875 13.4375 C27.86103516 13.76298828 28.53457031 14.08847656 29.22851562 14.42382812 C39.16163192 19.12388803 51.21535606 19.77856557 61.859375 16.98828125 C67.07940761 14.98566505 72.01159935 12.5163382 77 10 C77 10.66 77 11.32 77 12 C76.34 12 75.68 12 75 12 C75 12.66 75 13.32 75 14 C67.04334161 19.90332719 56.85892478 21.14398997 47.25 21.125 C45.93515625 21.12757812 44.6203125 21.13015625 43.265625 21.1328125 C40 21 40 21 38 20 C35.97967529 19.95466312 33.95796597 19.96146906 31.9375 20 C29.95869142 20.03764677 27.97861741 20.04662427 26 20 C25.67 19.67 25.34 19.34 25 19 C24.01 19.33 23.02 19.66 22 20 C21.01 19.34 20.02 18.68 19 18 C19 17.34 19 16.68 19 16 C19.99 16 20.98 16 22 16 C22.33 16.33 22.66 16.66 23 17 C23.33 16.34 23.66 15.68 24 15 C22.68 14.67 21.36 14.34 20 14 C20 12.68 20 11.36 20 10 Z " fill="#11527F" transform="translate(19,82)"/>
<path d="M0 0 C1.32 0 2.64 0 4 0 C5.66796875 1.86328125 5.66796875 1.86328125 7.1875 4.3125 C7.95126953 5.51326172 7.95126953 5.51326172 8.73046875 6.73828125 C10 9 10 9 11 12 C12.96672915 13.1500831 12.96672915 13.1500831 15 14 C16 15 16 15 16.0625 17.5625 C16.041875 18.366875 16.02125 19.17125 16 20 C17.65 20.33 19.3 20.66 21 21 C20.67 21.99 20.34 22.98 20 24 C19.34 24 18.68 24 18 24 C18 23.34 18 22.68 18 22 C17.01 22 16.02 22 15 22 C15 22.66 15 23.32 15 24 C14.34 24 13.68 24 13 24 C13 23.34 13 22.68 13 22 C11.68 22.33 10.36 22.66 9 23 C9 22.34 9 21.68 9 21 C8.01 20.67 7.02 20.34 6 20 C5.30062468 18.68352881 4.63270867 17.34977849 4 16 C3.34 15.67 2.68 15.34 2 15 C1.30062468 13.68352881 0.63270867 12.34977849 0 11 C-0.33 10.67 -0.66 10.34 -1 10 C-1.04063832 8.33382885 -1.042721 6.66611905 -1 5 C-0.34 5 0.32 5 1 5 C0.67 3.35 0.34 1.7 0 0 Z " fill="#025592" transform="translate(23,76)"/>
<path d="M0 0 C0.87454834 0.00523682 1.74909668 0.01047363 2.65014648 0.01586914 C3.59438477 0.0190918 4.53862305 0.02231445 5.51147461 0.02563477 C6.50469727 0.03401367 7.49791992 0.04239258 8.52124023 0.05102539 C9.51833008 0.05553711 10.51541992 0.06004883 11.54272461 0.06469727 C14.01478872 0.07652532 16.48673541 0.0930069 18.95874023 0.11352539 C18.64624023 2.05102539 18.64624023 2.05102539 17.95874023 4.11352539 C15.12521859 5.0580326 13.83372522 5.14707236 10.95874023 4.98852539 C7.18736523 4.927401 4.12695966 5.51902332 0.52124023 6.61352539 C-4.11485339 8.00954798 -8.03498979 8.25961741 -12.84594727 8.08618164 C-15.21200204 8.0020458 -15.21200204 8.0020458 -17.97875977 9.11352539 C-22.61388782 10.62703659 -27.20575031 10.26839936 -32.04125977 10.11352539 C-32.04125977 9.78352539 -32.04125977 9.45352539 -32.04125977 9.11352539 C-31.36579102 9.06454102 -30.69032227 9.01555664 -29.99438477 8.96508789 C-29.10235352 8.89032227 -28.21032227 8.81555664 -27.29125977 8.73852539 C-26.40954102 8.66891602 -25.52782227 8.59930664 -24.61938477 8.52758789 C-22.070449 8.26669856 -22.070449 8.26669856 -20.16625977 7.08227539 C-17.03035183 5.6526703 -14.21084666 5.92519971 -10.79125977 5.98852539 C-9.52797852 6.00657227 -8.26469727 6.02461914 -6.96313477 6.04321289 C-5.99891602 6.06641602 -5.03469727 6.08961914 -4.04125977 6.11352539 C-3.89688477 5.30915039 -3.75250977 4.50477539 -3.60375977 3.67602539 C-2.83139372 0.15746897 -2.83139372 0.15746897 0 0 Z " fill="#3D93BA" transform="translate(86.041259765625,76.886474609375)"/>
<path d="M0 0 C0.33 0.66 0.66 1.32 1 2 C0.62488281 2.41507813 0.24976562 2.83015625 -0.13671875 3.2578125 C-7.86067742 12.55769221 -10.55458002 24.22090586 -12 36 C-12.33 36 -12.66 36 -13 36 C-13.33 34.02 -13.66 32.04 -14 30 C-14.33 30 -14.66 30 -15 30 C-15.495 32.475 -15.495 32.475 -16 35 C-16.33 35 -16.66 35 -17 35 C-18.1885499 24.77847086 -12.63549485 15.05622284 -6.71484375 7.1015625 C-4.61729281 4.53098754 -2.45404884 2.23095349 0 0 Z " fill="#0F5484" transform="translate(33,22)"/>
<path d="M0 0 C0.99 0 1.98 0 3 0 C2.85851011 1.6045556 2.71164314 3.20863767 2.5625 4.8125 C2.48128906 5.70582031 2.40007812 6.59914063 2.31640625 7.51953125 C2 10 2 10 1 13 C-2.94006526 15.25146586 -5.66363553 15.0600002 -10 14 C-10.66 13.67 -11.32 13.34 -12 13 C-12 12.34 -12 11.68 -12 11 C-11.34 11 -10.68 11 -10 11 C-10 9.68 -10 8.36 -10 7 C-9.44570312 6.74605469 -8.89140625 6.49210937 -8.3203125 6.23046875 C-7.59585938 5.88628906 -6.87140625 5.54210938 -6.125 5.1875 C-5.40570313 4.85105469 -4.68640625 4.51460937 -3.9453125 4.16796875 C-1.69457194 3.00532903 -1.69457194 3.00532903 0 0 Z " fill="#0581BF" transform="translate(109,57)"/>
<path d="M0 0 C3.88784457 0.8506857 7.09338234 3.13238441 10.4140625 5.2578125 C13.82501807 6.76678431 15.59597378 6.38317827 19.16015625 5.47265625 C22.34765625 4.72265625 22.34765625 4.72265625 25.16015625 4.47265625 C27.03515625 5.91015625 27.03515625 5.91015625 28.16015625 7.47265625 C25.52015625 7.14265625 22.88015625 6.81265625 20.16015625 6.47265625 C20.16015625 7.13265625 20.16015625 7.79265625 20.16015625 8.47265625 C14.81386023 9.47508675 10.53640859 9.3215382 5.16015625 8.47265625 C5.49015625 7.15265625 5.82015625 5.83265625 6.16015625 4.47265625 C3.19015625 5.13265625 0.22015625 5.79265625 -2.83984375 6.47265625 C-2.83984375 5.81265625 -2.83984375 5.15265625 -2.83984375 4.47265625 C-4.15984375 4.14265625 -5.47984375 3.81265625 -6.83984375 3.47265625 C-7.16984375 4.13265625 -7.49984375 4.79265625 -7.83984375 5.47265625 C-10.19155506 4.87403883 -12.52578155 4.20341273 -14.83984375 3.47265625 C-15.16984375 2.81265625 -15.49984375 2.15265625 -15.83984375 1.47265625 C-13.85416667 1.79817708 -11.86848958 2.12369792 -9.8828125 2.44921875 C-6.28615692 2.49048057 -3.96045447 -0.05886026 0 0 Z " fill="#166896" transform="translate(53.83984375,53.52734375)"/>
<path d="M0 0 C2 2.5 2 2.5 4 5 C5.11375 6.3303125 5.11375 6.3303125 6.25 7.6875 C8 10 8 10 8 12 C8.639375 12.309375 9.27875 12.61875 9.9375 12.9375 C12 14 12 14 13 15 C13.04063832 16.66617115 13.042721 18.33388095 13 20 C14.65 20.33 16.3 20.66 18 21 C17.67 21.99 17.34 22.98 17 24 C16.34 24 15.68 24 15 24 C15 23.34 15 22.68 15 22 C14.01 22 13.02 22 12 22 C12 22.66 12 23.32 12 24 C11.34 24 10.68 24 10 24 C10 23.34 10 22.68 10 22 C8.68 22.33 7.36 22.66 6 23 C6 22.34 6 21.68 6 21 C5.01 20.67 4.02 20.34 3 20 C3.99 19.67 4.98 19.34 6 19 C6.33 18.34 6.66 17.68 7 17 C8.32 17.66 9.64 18.32 11 19 C11 18.34 11 17.68 11 17 C10.360625 16.731875 9.72125 16.46375 9.0625 16.1875 C7 15 7 15 6 12 C5.175 11.443125 4.35 10.88625 3.5 10.3125 C-0.04723181 7.03131058 0.23668164 4.73363279 0 0 Z " fill="#05558F" transform="translate(26,76)"/>
<path d="M0 0 C25.41 0 50.82 0 77 0 C76.67 0.66 76.34 1.32 76 2 C75.17838379 1.99777939 74.35676758 1.99555878 73.51025391 1.99327087 C65.74262201 1.97317963 57.97500284 1.95798096 50.20735168 1.94818783 C46.21455775 1.94298374 42.22178541 1.93593132 38.22900391 1.92456055 C34.37107126 1.91364337 30.51315931 1.90770455 26.6552124 1.90512276 C25.18812739 1.90328436 23.72104342 1.89969459 22.25396729 1.89426994 C15.10458473 1.86890142 8.07489399 1.84873628 1 3 C0.67 2.01 0.34 1.02 0 0 Z " fill="#2591C9" transform="translate(28,76)"/>
<path d="M0 0 C7.37363179 5.56784442 13.19361191 13.07598286 16 22 C15.67 22.99 15.34 23.98 15 25 C14.34 24.67 13.68 24.34 13 24 C13 25.65 13 27.3 13 29 C12.67 29 12.34 29 12 29 C11.74476562 27.83984375 11.74476562 27.83984375 11.484375 26.65625 C9.57865903 18.46572604 7.19194002 11.9236576 2.25 5.125 C0 2 0 2 0 0 Z " fill="#175075" transform="translate(101,22)"/>
<path d="M0 0 C1.32 0 2.64 0 4 0 C4.66 0.66 5.32 1.32 6 2 C10.26006547 3.96618406 14.52353678 5.58063361 19 7 C19 7.33 19 7.66 19 8 C13.72 8 8.44 8 3 8 C0 2 0 2 0 0 Z " fill="#005B9A" transform="translate(25,68)"/>
<path d="M0 0 C1.27875 -0.061875 2.5575 -0.12375 3.875 -0.1875 C4.95394531 -0.23970703 4.95394531 -0.23970703 6.0546875 -0.29296875 C6.69664063 -0.19628906 7.33859375 -0.09960938 8 0 C8.66 0.99 9.32 1.98 10 3 C12.16252055 3.54319235 12.16252055 3.54319235 14.5625 3.625 C18.91766724 3.91766724 18.91766724 3.91766724 20 5 C21.41570123 5.08651611 22.835595 5.10704904 24.25390625 5.09765625 C25.10791016 5.09443359 25.96191406 5.09121094 26.84179688 5.08789062 C28.18854492 5.07532227 28.18854492 5.07532227 29.5625 5.0625 C30.46419922 5.05798828 31.36589844 5.05347656 32.29492188 5.04882812 C34.53001314 5.03700225 36.76497437 5.0205222 39 5 C34.63202737 7.45453619 30.91576603 7.38412016 26 7.375 C25.1536499 7.37411377 24.3072998 7.37322754 23.43530273 7.37231445 C14.74265562 7.20927042 6.88084589 5.57172904 0 0 Z " fill="#14507B" transform="translate(42,107)"/>
<path d="M0 0 C0.33 0.66 0.66 1.32 1 2 C0.60167969 2.49628906 0.20335937 2.99257813 -0.20703125 3.50390625 C-3.59884975 7.85302633 -6.06315984 11.8350929 -8 17 C-8.99 16.67 -9.98 16.34 -11 16 C-11.12375 16.639375 -11.2475 17.27875 -11.375 17.9375 C-11.58125 18.618125 -11.7875 19.29875 -12 20 C-12.66 20.33 -13.32 20.66 -14 21 C-12.04198104 12.73280883 -6.19013532 5.62739575 0 0 Z " fill="#285473" transform="translate(33,22)"/>
<path d="M0 0 C4.9723422 1.49170266 9.41845739 3.60457417 14 6 C14 6.33 14 6.66 14 7 C12.35 7 10.7 7 9 7 C9 6.34 9 5.68 9 5 C8.236875 5.04125 7.47375 5.0825 6.6875 5.125 C4 5 4 5 1 3 C1 7.95 1 12.9 1 18 C-1.09390269 13.81219462 -1.24382711 11.8852371 -1.1875 7.3125 C-1.18105469 6.15363281 -1.17460937 4.99476562 -1.16796875 3.80078125 C-1 1 -1 1 0 0 Z " fill="#1C658F" transform="translate(24,48)"/>
<path d="M0 0 C0.99 0.33 1.98 0.66 3 1 C3.33 5.62 3.66 10.24 4 15 C2.02 15.99 2.02 15.99 0 17 C-1.14819277 11.1314592 -0.77313045 5.9114744 0 0 Z " fill="#05548E" transform="translate(115,50)"/>
<path d="M0 0 C1.37432457 3.81756824 0.67975039 7.07255329 0 11 C-1.33333333 11.33333333 -2.66666667 11.66666667 -4 12 C-5.0209375 12.2784375 -5.0209375 12.2784375 -6.0625 12.5625 C-8 13 -8 13 -11 13 C-10.45730469 12.48050781 -9.91460937 11.96101563 -9.35546875 11.42578125 C-4.00470957 6.24345698 -4.00470957 6.24345698 0 0 Z " fill="#115381" transform="translate(107,78)"/>
<path d="M0 0 C0 0.66 0 1.32 0 2 C0.72445312 2.04898438 1.44890625 2.09796875 2.1953125 2.1484375 C7.41458867 2.55206152 12.09813658 3.01275807 17 5 C13.16995433 6.21464364 9.43340719 6.20312719 5.4375 6.25 C4.76525391 6.270625 4.09300781 6.29125 3.40039062 6.3125 C0.44870954 6.3359493 -1.51284251 6.34478741 -3.96484375 4.609375 C-5 3 -5 3 -5 1 C-3 0 -3 0 0 0 Z " fill="#3B91B7" transform="translate(37,80)"/>
<path d="M0 0 C0.99 0 1.98 0 3 0 C3.66 1.32 4.32 2.64 5 4 C5.33 4 5.66 4 6 4 C6 5.65 6 7.3 6 9 C6.639375 9.268125 7.27875 9.53625 7.9375 9.8125 C10 11 10 11 11 14 C12.99665598 15.67067133 14.99651034 17.33752986 17 19 C17 19.66 17 20.32 17 21 C8.3273699 17.29143657 3.58432445 8.25428563 0 0 Z " fill="#134E74" transform="translate(19,82)"/>
<path d="M0 0 C0.99 0 1.98 0 3 0 C2.88557539 1.60495567 2.75805306 3.20898119 2.625 4.8125 C2.55539063 5.70582031 2.48578125 6.59914063 2.4140625 7.51953125 C2 10 2 10 0 13 C0 10.36 0 7.72 0 5 C-0.721875 5.495 -1.44375 5.99 -2.1875 6.5 C-5.14848659 8.07919285 -6.71253029 8.28178312 -10 8 C-8 6 -8 6 -5 4.5625 C-1.77974457 3.19148236 -1.77974457 3.19148236 0 0 Z " fill="#277999" transform="translate(109,57)"/>
<path d="M0 0 C0.66 0 1.32 0 2 0 C5.61643836 7.68493151 5.61643836 7.68493151 5 12 C4.34 12.66 3.68 13.32 3 14 C3 14.66 3 15.32 3 16 C2.34 16 1.68 16 1 16 C1.33 12.37 1.66 8.74 2 5 C1.01 4.67 0.02 4.34 -1 4 C-0.67 2.68 -0.34 1.36 0 0 Z " fill="#035793" transform="translate(18,64)"/>
<path d="M0 0 C0 4.86987641 -3.09676907 8.23327884 -6 12 C-8.875 14.5625 -8.875 14.5625 -11 16 C-10.34 13.36 -9.68 10.72 -9 8 C-7.68 7.67 -6.36 7.34 -5 7 C-4.67 5.68 -4.34 4.36 -4 3 C-3.34 3.33 -2.68 3.66 -2 4 C-1.34 2.68 -0.68 1.36 0 0 Z " fill="#10507C" transform="translate(113,85)"/>
<path d="M0 0 C2 2.5 2 2.5 4 5 C5.11375 6.3303125 5.11375 6.3303125 6.25 7.6875 C8 10 8 10 8 12 C8.99 12.33 9.98 12.66 11 13 C9.3125 13.8125 9.3125 13.8125 7 14 C3.42392785 11.10508445 1.25211339 8.43931112 0 4 C0 2.68 0 1.36 0 0 Z " fill="#12537A" transform="translate(26,76)"/>
<path d="M0 0 C0.5775 0.45375 1.155 0.9075 1.75 1.375 C3.7800333 2.84113516 5.73539843 3.94857784 8 5 C1.375 8.125 1.375 8.125 -2 7 C-1.42415568 4.61435923 -0.77772405 2.33317216 0 0 Z " fill="#0E5282" transform="translate(83,104)"/>
<path d="M0 0 C-0.59861742 2.35171131 -1.26924352 4.6859378 -2 7 C-2.99 7.495 -2.99 7.495 -4 8 C-4 7.34 -4 6.68 -4 6 C-4.99 6 -5.98 6 -7 6 C-7 4.68 -7 3.36 -7 2 C-4.35261084 0.5393715 -3.10551666 0 0 0 Z " fill="#0E6BA2" transform="translate(109,70)"/>
<path d="M0 0 C0.33 1.32 0.66 2.64 1 4 C1.66 4 2.32 4 3 4 C3.33 2.68 3.66 1.36 4 0 C3.67 3.96 3.34 7.92 3 12 C2.67 12 2.34 12 2 12 C1.67 10.02 1.34 8.04 1 6 C0.67 6 0.34 6 0 6 C-0.33 7.65 -0.66 9.3 -1 11 C-1.33 11 -1.66 11 -2 11 C-2.28571429 3.57142857 -2.28571429 3.57142857 0 0 Z " fill="#114D75" transform="translate(18,46)"/>
<path d="M0 0 C1.98 0.495 1.98 0.495 4 1 C3.67 2.32 3.34 3.64 3 5 C2.34 4.67 1.68 4.34 1 4 C1.02320312 4.67546875 1.04640625 5.3509375 1.0703125 6.046875 C1.08835937 6.93890625 1.10640625 7.8309375 1.125 8.75 C1.14820312 9.63171875 1.17140625 10.5134375 1.1953125 11.421875 C1 14 1 14 -1 18 C-0.505 9.09 -0.505 9.09 0 0 Z " fill="#145481" transform="translate(114,46)"/>
<path d="M0 0 C7.66742597 5.96583144 7.66742597 5.96583144 9 11 C4.55092795 9.51697598 2.25420608 5.91714499 0 2 C0 1.34 0 0.68 0 0 Z " fill="#2A5870" transform="translate(101,22)"/>
<path d="M0 0 C2.40685554 0.46799969 4.77146183 0.93278289 7.125 1.625 C9.21447673 2.2041405 9.21447673 2.2041405 12 1 C12 1.99 12 2.98 12 4 C4.61538462 4.49230769 4.61538462 4.49230769 1.5 2 C1.005 1.34 0.51 0.68 0 0 Z " fill="#1E6B92" transform="translate(87,64)"/>
<path d="M0 0 C0.99 0 1.98 0 3 0 C2.79375 1.0725 2.5875 2.145 2.375 3.25 C2.0123809 6.87619096 2.01637931 8.08291076 4 11 C3.01 11.495 3.01 11.495 2 12 C2 11.01 2 10.02 2 9 C1.34 9 0.68 9 0 9 C0 6.03 0 3.06 0 0 Z " fill="#04558F" transform="translate(17,51)"/>
<path d="M0 0 C3.96 0 7.92 0 12 0 C9.09907498 1.93395001 8.10325263 2.30131941 4.8125 2.625 C3.554375 2.74875 2.29625 2.8725 1 3 C0.67 2.01 0.34 1.02 0 0 Z " fill="#1875B3" transform="translate(28,76)"/>
<path d="M0 0 C1.32 0 2.64 0 4 0 C5.125 1.75 5.125 1.75 6 4 C5.125 6.25 5.125 6.25 4 8 C3.34 7.67 2.68 7.34 2 7 C1.26924352 4.6859378 0.59861742 2.35171131 0 0 Z " fill="#0F5482" transform="translate(25,68)"/>
<path d="M0 0 C1.65 0 3.3 0 5 0 C1.57611908 3.82669043 -1.00724943 5.72278474 -6 7 C-4 4 -4 4 -1 3 C-0.67 2.01 -0.34 1.02 0 0 Z " fill="#124A71" transform="translate(97,101)"/>
<path d="M0 0 C3.3125 -0.1875 3.3125 -0.1875 7 0 C7.99 0.99 8.98 1.98 10 3 C6.37 2.67 2.74 2.34 -1 2 C-0.67 1.34 -0.34 0.68 0 0 Z " fill="#186A8E" transform="translate(49,54)"/>
<path d="M0 0 C3.96 1.98 3.96 1.98 8 4 C4.29847322 4.92538169 3.36541838 5.08174162 0 4 C0 2.68 0 1.36 0 0 Z " fill="#16547D" transform="translate(39,92)"/>
<path d="M0 0 C0.66 0 1.32 0 2 0 C2.25 6.625 2.25 6.625 0 10 C-0.19412181 8.52168779 -0.38012131 7.04230684 -0.5625 5.5625 C-0.66691406 4.73878906 -0.77132812 3.91507813 -0.87890625 3.06640625 C-0.91886719 2.38449219 -0.95882812 1.70257813 -1 1 C-0.67 0.67 -0.34 0.34 0 0 Z " fill="#1D77A2" transform="translate(109,60)"/>
</svg>
